<?xml version="1.0" encoding="UTF-8"?>
<svg id="graphics" xmlns="http://www.w3.org/2000/svg" xmlns:xlink="http://www.w3.org/1999/xlink" viewBox="0 0 1774.66 408.99">
  <defs>
    <style>
      .cls-1 {
        fill: url(#linear-gradient);
      }

      .cls-1, .cls-2, .cls-3 {
        stroke-width: 0px;
      }

      .cls-4 {
        fill: #fff;
        font-family: Roboto-Bold, Roboto;
        font-size: 238.96px;
        font-weight: 700;
      }

      .cls-2 {
        fill: url(#linear-gradient-2);
      }

      .cls-3 {
        fill: url(#linear-gradient-3);
      }
    </style>
    <linearGradient id="linear-gradient" x1="787.8" y1="223.57" x2="1058.48" y2="223.57" gradientUnits="userSpaceOnUse">
      <stop offset="0" stop-color="#0049cc"/>
      <stop offset=".2" stop-color="#005fd4"/>
      <stop offset=".62" stop-color="#0099e9"/>
      <stop offset="1" stop-color="#00d4ff"/>
    </linearGradient>
    <linearGradient id="linear-gradient-2" x1="1006.16" y1="297.42" x2="796.79" y2="295.85" xlink:href="#linear-gradient"/>
    <linearGradient id="linear-gradient-3" x1="1003.03" y1="216.53" x2="827.37" y2="143.6" xlink:href="#linear-gradient"/>
  </defs>
  <text class="cls-4" transform="translate(41.61 310.03)"><tspan x="0" y="0">Studio</tspan></text>
  <g>
    <path class="cls-1" d="m1058.45,222.78c-1.11-26.13-9.62-50.36-23.51-70.63,11.58,25.65-5.66,44.04-31.81,44.04h-137.86c11.38-20.26,33.08-33.98,57.92-33.98h-80.03c-23.52,0-55.35,28.42-55.35,66.38,0-1.17.02-2.34.04-3.5-.03,1.17-.04,2.34-.04,3.51,0,37.96,31.83,66.39,55.35,66.39h80.03c-23.09,0-43.47-11.85-55.36-29.8h142.88c25.17,0,48.8-17.26,47.74-42.41Z"/>
    <path class="cls-2" d="m923.19,363.98c54.75,0,102.06-32.55,123.36-79.51h-87.55c-10.11,6.5-22.08,10.34-34.93,10.5-.29,0-.58,0-.88,0h-66.96c-35.34,0-68.42-28.42-68.42-66.39,0,74.65,60.47,135.38,135.38,135.38Z"/>
    <path class="cls-3" d="m923.19,93.21c-74.6,0-135.38,60.42-135.38,135.37,0-37.96,34.12-66.38,68.42-66.38h66.96c24.84,0,46.54,13.72,57.92,33.98h22.02c26.15,0,43.39-18.39,31.81-44.04-24.37-35.56-65.28-58.93-111.75-58.93Z"/>
  </g>
  <text class="cls-4" transform="translate(1081.38 312.42)"><tspan x="0" y="0">unoia</tspan></text>
</svg>